<svg xmlns="http://www.w3.org/2000/svg" width="600" height="600" viewBox="0 0 600 600">
  <title>Plate I — Apothecary culture jar with fennel sprig</title>
  <circle cx="300" cy="300" r="272" fill="#f4edda" opacity="0.45"/>
  <circle cx="300" cy="300" r="272" fill="none" stroke="#2e2418" stroke-width="2"/>
  <circle cx="300" cy="300" r="262" fill="none" stroke="#2e2418" stroke-width="1"/>
  <g stroke="#2e2418" fill="none" stroke-linecap="round" stroke-linejoin="round">
    <!-- ground-glass stopper -->
    <g stroke-width="2">
      <ellipse cx="278" cy="150" rx="18" ry="9"/>
      <path d="M262 154L266 172M294 154L290 172"/>
      <ellipse cx="278" cy="176" rx="26" ry="8"/>
    </g>
    <!-- neck, shoulder and body of the jar -->
    <path d="M258 182C256 196 250 206 238 216C206 240 190 274 190 322C190 384 210 428 258 438C304 447 342 432 356 400C372 362 370 296 348 256C338 238 326 226 318 216C306 206 300 196 298 182" stroke-width="2.2"/>
    <path d="M228 426Q278 440 328 428" stroke-width="1"/>
    <!-- gentle swirl within -->
    <g stroke-width="1.6">
      <path d="M236 352C230 318 252 294 284 296C312 298 330 318 324 342C318 362 296 370 282 358C272 349 276 334 290 332"/>
      <path d="M246 372C270 388 306 386 322 368" stroke-width="1.2"/>
    </g>
    <g stroke-width="1.2">
      <circle cx="252" cy="322" r="3"/>
      <circle cx="308" cy="312" r="2.6"/>
      <circle cx="270" cy="300" r="2.2"/>
    </g>
    <!-- glass shading -->
    <g stroke-width="1" opacity="0.7">
      <path d="M208 288q-6 34 2 66M218 266q-5 20-6 40"/>
    </g>
    <!-- fennel sprig -->
    <path d="M446 456C440 396 436 330 428 270" stroke-width="1.7"/>
    <g stroke-width="1.1">
      <path d="M428 270Q410 244 398 230M428 270Q420 238 416 220M428 270Q432 236 438 218M428 270Q446 240 458 228M428 270Q416 250 408 242M428 270Q440 246 450 240"/>
    </g>
    <g stroke-width="1.3">
      <circle cx="396" cy="226" r="2.6"/><circle cx="415" cy="216" r="2.6"/><circle cx="439" cy="214" r="2.6"/>
      <circle cx="460" cy="224" r="2.6"/><circle cx="406" cy="238" r="2.3"/><circle cx="452" cy="236" r="2.3"/>
    </g>
    <!-- feathery leaves -->
    <g stroke-width="1" opacity="0.85">
      <path d="M436 372Q420 366 410 352M436 372Q416 374 402 366M436 372Q424 384 410 388"/>
      <path d="M442 414Q458 408 466 394M442 414Q462 416 474 408M442 414Q454 426 468 430"/>
    </g>
  </g>
  <text x="576" y="580" text-anchor="end" font-family="Georgia, 'Times New Roman', serif" font-size="20" letter-spacing="3" fill="#2e2418">PL. I</text>
</svg>
