<svg xmlns="http://www.w3.org/2000/svg" width="600" height="600" viewBox="0 0 600 600">
  <title>Plate V — Mortar and pestle with sprigs</title>
  <defs>
    <path id="tl" d="M0 0Q8 -8 18 -9Q9 -1 0 0Z"/>
    <path id="gr" d="M0 0Q4 6 0 13Q-4 6 0 0Z"/>
  </defs>
  <circle cx="300" cy="300" r="272" fill="#f4edda" opacity="0.45"/>
  <circle cx="300" cy="300" r="272" fill="none" stroke="#2e2418" stroke-width="2"/>
  <circle cx="300" cy="300" r="262" fill="none" stroke="#2e2418" stroke-width="1"/>
  <g stroke="#2e2418" fill="none" stroke-linecap="round" stroke-linejoin="round">
    <!-- sprigs rising from the bowl -->
    <g stroke-width="1.6">
      <path d="M268 284C248 256 236 230 234 202"/>
      <use href="#tl" transform="translate(252 258) rotate(195)" stroke-width="1.2"/>
      <use href="#tl" transform="translate(241 232) rotate(150)" stroke-width="1.2"/>
      <circle cx="234" cy="196" r="6"/>
      <path d="M234 187v-6M241 190l4-5M227 190l-4-5M245 196h6M223 196h-6" stroke-width="1.1"/>
      <path d="M300 280C300 250 310 224 326 204"/>
      <use href="#tl" transform="translate(303 252) rotate(-45)" stroke-width="1.2"/>
      <use href="#tl" transform="translate(313 226) rotate(-70)" stroke-width="1.2"/>
      <circle cx="328" cy="200" r="3.2" stroke-width="1.3"/>
      <circle cx="336" cy="207" r="3" stroke-width="1.3"/>
      <circle cx="332" cy="192" r="2.8" stroke-width="1.3"/>
      <path d="M330 285Q345 262 349 240"/>
      <use href="#gr" transform="translate(349 238) rotate(-10)" stroke-width="1.2"/>
      <use href="#gr" transform="translate(342 254) rotate(16)" stroke-width="1.2"/>
    </g>
    <!-- pestle -->
    <g stroke-width="2">
      <path d="M436 200C428 190 430 174 442 166C454 158 470 164 474 176C477 186 472 196 462 201"/>
      <path d="M441 203L372 282M462 204L390 296"/>
      <path d="M446 206Q452 210 458 206" stroke-width="1.2"/>
    </g>
    <!-- mortar -->
    <g stroke-width="2.2">
      <ellipse cx="300" cy="296" rx="102" ry="24"/>
      <ellipse cx="300" cy="296" rx="88" ry="17" stroke-width="1"/>
      <path d="M198 300C202 342 230 368 262 375C252 381 246 389 246 399L354 399C354 389 348 381 338 375C370 368 398 342 402 300"/>
      <path d="M242 399C237 404 235 410 237 416L363 416C365 410 363 404 358 399"/>
    </g>
    <path d="M240 352Q300 366 360 352" stroke-width="1"/>
    <g stroke-width="1" opacity="0.7">
      <path d="M215 320q3 18 14 30M228 330q3 14 11 22M205 310q2 12 8 22"/>
    </g>
  </g>
  <text x="576" y="580" text-anchor="end" font-family="Georgia, 'Times New Roman', serif" font-size="20" letter-spacing="3" fill="#2e2418">PL. V</text>
</svg>
