<svg xmlns="http://www.w3.org/2000/svg" width="600" height="600" viewBox="0 0 600 600">
  <title>Plate II — Ginger root with cut slices</title>
  <defs>
    <g id="rays">
      <path d="M0 -32V-8"/><path d="M0 -32V-8" transform="rotate(36)"/><path d="M0 -32V-8" transform="rotate(72)"/>
      <path d="M0 -32V-8" transform="rotate(108)"/><path d="M0 -32V-8" transform="rotate(144)"/><path d="M0 -32V-8" transform="rotate(180)"/>
      <path d="M0 -32V-8" transform="rotate(216)"/><path d="M0 -32V-8" transform="rotate(252)"/><path d="M0 -32V-8" transform="rotate(288)"/>
      <path d="M0 -32V-8" transform="rotate(324)"/>
    </g>
  </defs>
  <circle cx="300" cy="300" r="272" fill="#f4edda" opacity="0.45"/>
  <circle cx="300" cy="300" r="272" fill="none" stroke="#2e2418" stroke-width="2"/>
  <circle cx="300" cy="300" r="262" fill="none" stroke="#2e2418" stroke-width="1"/>
  <g stroke="#2e2418" fill="none" stroke-linecap="round" stroke-linejoin="round">
    <!-- knobby hand of ginger -->
    <path d="M190 280C178 288 178 306 192 312C204 318 220 318 232 312C236 324 248 332 262 330C276 328 284 318 284 306C298 312 314 310 322 300C330 290 326 276 314 272C320 262 316 248 304 244C292 240 280 246 276 256C268 246 254 242 242 248C234 252 230 260 232 270C218 266 200 270 190 280Z" stroke-width="2.2"/>
    <g stroke-width="1.2" opacity="0.85">
      <path d="M232 270q6 10 1 22M276 256q4 12-1 24M314 272q-9 6-19 7M242 248q2 10-2 18"/>
      <path d="M300 244q4-8 12-10M240 246q2-8 9-11"/>
    </g>
    <g stroke-width="1" opacity="0.7">
      <path d="M205 288q6 8 4 18M255 312q6 6 12 6M270 300q4 6 3 14"/>
    </g>
    <!-- cut slices -->
    <g stroke-width="2">
      <circle cx="404" cy="396" r="44"/>
      <circle cx="404" cy="396" r="36" stroke-width="1"/>
      <use href="#rays" transform="translate(404 396)" stroke-width="1"/>
      <circle cx="404" cy="396" r="3" stroke-width="1.2"/>
      <circle cx="330" cy="446" r="34"/>
      <circle cx="330" cy="446" r="27" stroke-width="1"/>
      <use href="#rays" transform="translate(330 446) scale(0.75)" stroke-width="1.3"/>
      <circle cx="330" cy="446" r="2.5" stroke-width="1.2"/>
    </g>
  </g>
  <text x="576" y="580" text-anchor="end" font-family="Georgia, 'Times New Roman', serif" font-size="20" letter-spacing="3" fill="#2e2418">PL. II</text>
</svg>
