<svg xmlns="http://www.w3.org/2000/svg" width="600" height="600" viewBox="0 0 600 600">
  <title>Plate II — Ginger root with cut slices</title>
  <defs>
    <g id="rays">
      <path d="M0 -32V-8"/><path d="M0 -32V-8" transform="rotate(36)"/><path d="M0 -32V-8" transform="rotate(72)"/>
      <path d="M0 -32V-8" transform="rotate(108)"/><path d="M0 -32V-8" transform="rotate(144)"/><path d="M0 -32V-8" transform="rotate(180)"/>
      <path d="M0 -32V-8" transform="rotate(216)"/><path d="M0 -32V-8" transform="rotate(252)"/><path d="M0 -32V-8" transform="rotate(288)"/>
      <path d="M0 -32V-8" transform="rotate(324)"/>
    </g>
  </defs>
  <circle cx="300" cy="300" r="272" fill="#f4edda" opacity="0.45"/>
  <circle cx="300" cy="300" r="272" fill="none" stroke="#2e2418" stroke-width="2"/>
  <circle cx="300" cy="300" r="262" fill="none" stroke="#2e2418" stroke-width="1"/>
  <g stroke="#2e2418" fill="none" stroke-linecap="round" stroke-linejoin="round" transform="translate(300 350) scale(1.25) translate(-300 -350)">
    <!-- knobby hand of ginger with cut finger tips -->
    <path d="M162 296C152 304 153 320 166 326C178 331 194 330 204 323C210 334 224 340 238 336C250 333 257 323 256 312C270 318 286 316 296 306C306 296 304 282 294 276C304 268 306 252 294 245C284 240 272 244 268 254C266 240 256 231 243 233C231 235 225 245 227 257C217 249 202 250 194 260C186 269 188 282 197 288C185 286 172 288 162 296Z" stroke-width="2.2"/>
    <g stroke-width="1.2" opacity="0.85">
      <path d="M227 257q8 8 18 9M268 254q-6 10-16 12M294 276q-10 2-20-2M204 323q4-10 12-16M256 312q-8-6-12-14"/>
      <ellipse cx="296" cy="250" rx="6" ry="3.8" transform="rotate(-35 296 250)"/>
      <ellipse cx="245" cy="236" rx="5.5" ry="3.5" transform="rotate(5 245 236)"/>
      <ellipse cx="198" cy="263" rx="5" ry="3.2" transform="rotate(48 198 263)"/>
    </g>
    <g stroke-width="1" opacity="0.7">
      <path d="M170 300q6 7 4 16M216 310q6 6 4 15M266 296q6 5 4 14M240 250q5 7 4 16M284 258q4 6 3 13"/>
    </g>
    <!-- cut slices -->
    <g stroke-width="2">
      <circle cx="404" cy="396" r="44"/>
      <circle cx="404" cy="396" r="36" stroke-width="1"/>
      <use href="#rays" transform="translate(404 396)" stroke-width="1"/>
      <circle cx="404" cy="396" r="3" stroke-width="1.2"/>
      <circle cx="330" cy="446" r="34"/>
      <circle cx="330" cy="446" r="27" stroke-width="1"/>
      <use href="#rays" transform="translate(330 446) scale(0.75)" stroke-width="1.3"/>
      <circle cx="330" cy="446" r="2.5" stroke-width="1.2"/>
    </g>
  </g>
  <text x="576" y="580" text-anchor="end" font-family="Georgia, 'Times New Roman', serif" font-size="20" letter-spacing="3" fill="#2e2418">PL. II</text>
</svg>
