<svg xmlns="http://www.w3.org/2000/svg" width="600" height="600" viewBox="0 0 600 600">
  <title>Plate V — Paw mark with laurel sprigs and balm tin</title>
  <defs>
    <path id="lv" d="M0 0Q11 -13 26 -15Q17 -2 0 0Z"/>
  </defs>
  <circle cx="300" cy="300" r="272" fill="#f4edda" opacity="0.45"/>
  <circle cx="300" cy="300" r="272" fill="none" stroke="#2e2418" stroke-width="2"/>
  <circle cx="300" cy="300" r="262" fill="none" stroke="#2e2418" stroke-width="1"/>
  <g stroke="#2e2418" fill="none" stroke-linecap="round" stroke-linejoin="round">
    <!-- toe pads -->
    <g stroke-width="2">
      <ellipse cx="238" cy="202" rx="15" ry="21" transform="rotate(-20 238 202)"/>
      <ellipse cx="281" cy="174" rx="15" ry="22" transform="rotate(-7 281 174)"/>
      <ellipse cx="325" cy="174" rx="15" ry="22" transform="rotate(7 325 174)"/>
      <ellipse cx="368" cy="202" rx="15" ry="21" transform="rotate(20 368 202)"/>
      <!-- main pad -->
      <path d="M302 308C274 308 252 290 252 266C252 250 264 238 280 244C287 234 317 234 324 244C340 238 352 250 352 266C352 290 330 308 302 308Z"/>
    </g>
    <g stroke-width="1" opacity="0.6">
      <path d="M268 282q8 12 20 16M264 266q4 10 12 18M330 290q6-6 10-14"/>
      <path d="M232 212q4 6 10 8M320 184q4 6 9 7"/>
    </g>
    <g fill="#2e2418" stroke="none">
      <circle cx="300" cy="262" r="1.4"/><circle cx="288" cy="274" r="1.3"/><circle cx="313" cy="276" r="1.3"/>
      <circle cx="281" cy="168" r="1.2"/><circle cx="366" cy="198" r="1.2"/>
    </g>
    <!-- protective laurel sprig, left -->
    <g>
      <path d="M196 428C176 352 196 262 252 200" stroke-width="1.6"/>
      <g stroke-width="1.2">
        <use href="#lv" transform="translate(194 396) rotate(-125)"/>
        <use href="#lv" transform="translate(187 352) rotate(-100)"/>
        <use href="#lv" transform="translate(191 308) rotate(-80)"/>
        <use href="#lv" transform="translate(206 264) rotate(-60)"/>
        <use href="#lv" transform="translate(228 230) rotate(-42)"/>
        <use href="#lv" transform="translate(190 374) rotate(96)"/>
        <use href="#lv" transform="translate(196 330) rotate(114)"/>
        <use href="#lv" transform="translate(214 284) rotate(134)"/>
        <use href="#lv" transform="translate(238 246) rotate(152)"/>
      </g>
    </g>
    <!-- protective laurel sprig, right (mirrored) -->
    <g transform="translate(604 0) scale(-1 1)">
      <path d="M196 428C176 352 196 262 252 200" stroke-width="1.6"/>
      <g stroke-width="1.2">
        <use href="#lv" transform="translate(194 396) rotate(-125)"/>
        <use href="#lv" transform="translate(187 352) rotate(-100)"/>
        <use href="#lv" transform="translate(191 308) rotate(-80)"/>
        <use href="#lv" transform="translate(206 264) rotate(-60)"/>
        <use href="#lv" transform="translate(228 230) rotate(-42)"/>
        <use href="#lv" transform="translate(190 374) rotate(96)"/>
        <use href="#lv" transform="translate(196 330) rotate(114)"/>
        <use href="#lv" transform="translate(214 284) rotate(134)"/>
        <use href="#lv" transform="translate(238 246) rotate(152)"/>
      </g>
    </g>
    <!-- small balm tin -->
    <g stroke-width="2">
      <ellipse cx="302" cy="404" rx="44" ry="12"/>
      <path d="M258 404L258 430M346 404L346 430"/>
      <path d="M258 430Q302 444 346 430"/>
    </g>
    <ellipse cx="302" cy="404" rx="35" ry="8" stroke-width="1"/>
    <path d="M266 424q36 10 72 0" stroke-width="1" opacity="0.7"/>
  </g>
  <text x="576" y="580" text-anchor="end" font-family="Georgia, 'Times New Roman', serif" font-size="20" letter-spacing="3" fill="#2e2418">PL. V</text>
</svg>
