<svg xmlns="http://www.w3.org/2000/svg" width="520" height="420" viewBox="0 0 520 420">
  <title>Engraved botanical wreath with dog in profile</title>
  <desc>Copperplate-style line drawing: a dog's head in profile within an open wreath of leaves, oat spikelets and chamomile.</desc>
  <defs>
    <path id="lf" d="M0 0Q10 -9 24 -10Q12 -2 0 0Z"/>
    <path id="pt" d="M0 -7Q3 -15 0 -21Q-3 -15 0 -7"/>
    <path id="sp" d="M0 0Q4 7 0 15Q-4 7 0 0Z"/>
    <g id="cham">
      <use href="#pt"/><use href="#pt" transform="rotate(36)"/><use href="#pt" transform="rotate(72)"/>
      <use href="#pt" transform="rotate(108)"/><use href="#pt" transform="rotate(144)"/><use href="#pt" transform="rotate(180)"/>
      <use href="#pt" transform="rotate(216)"/><use href="#pt" transform="rotate(252)"/><use href="#pt" transform="rotate(288)"/>
      <use href="#pt" transform="rotate(324)"/>
      <circle r="5.5"/>
      <g fill="#2e2418" stroke="none">
        <circle r="1"/><circle cx="2.6" cy="1.4" r="0.8"/><circle cx="-2.4" cy="1.6" r="0.8"/><circle cx="0.4" cy="-2.6" r="0.8"/>
      </g>
    </g>
    <g id="branch">
      <!-- stem: quarter-plus arc from bottom towards upper left -->
      <path d="M254 380A165 165 0 0 1 143 98" stroke-width="2"/>
      <use href="#lf" transform="translate(217 374) rotate(78)"/>
      <use href="#lf" transform="translate(173 355) rotate(140)"/>
      <use href="#lf" transform="translate(134 321) rotate(112)"/>
      <use href="#lf" transform="translate(107 277) rotate(178)"/>
      <use href="#lf" transform="translate(95 227) rotate(150)"/>
      <use href="#lf" transform="translate(100 175) rotate(214)"/>
      <use href="#lf" transform="translate(120 128) rotate(186)"/>
      <!-- oat spray at the branch tip -->
      <path d="M143 98Q152 74 170 58" stroke-width="1.4"/>
      <path d="M158 78Q150 68 148 56M164 68Q162 55 168 45M170 58Q178 50 190 47" stroke-width="1"/>
      <use href="#sp" transform="translate(148 56) rotate(14)"/>
      <use href="#sp" transform="translate(168 45) rotate(-6)"/>
      <use href="#sp" transform="translate(190 47) rotate(-52)"/>
    </g>
  </defs>
  <g stroke="#2e2418" fill="none" stroke-linecap="round" stroke-linejoin="round" stroke-width="1.5">
    <use href="#branch"/>
    <use href="#branch" transform="translate(520 0) scale(-1 1)"/>
    <!-- chamomile at the binding of the wreath -->
    <use href="#cham" transform="translate(235 383) rotate(-8)"/>
    <use href="#cham" transform="translate(286 387) rotate(12)"/>
    <path d="M260 396q0-6 4-9" stroke-width="1.2"/>
    <circle cx="261" cy="399" r="3.5"/>
    <!-- dog: head and chest in profile, facing left -->
    <g stroke-width="2">
      <path d="M300 118C282 118 268 126 258 140C254 146 252 150 246 153C232 158 216 163 205 168C200 170 197 173 197 178C197 182 200 184 205 185C210 186 214 188 216 191C220 198 228 204 240 208C250 212 258 220 262 232C266 248 264 270 258 292"/>
      <path d="M300 118C318 122 330 132 336 148C344 168 346 200 344 240C343 262 341 280 338 296"/>
      <path d="M296 128C310 130 320 142 322 160C324 178 318 192 306 196C296 199 288 192 286 178C284 162 287 140 296 128Z"/>
    </g>
    <path d="M209 185Q220 193 232 193" stroke-width="1.4"/>
    <path d="M203 174q4 1 3 5q-4 0-3-5Z" fill="#2e2418" stroke-width="1"/>
    <path d="M244 156q6-4 12-1q-6 5-12 1Z" fill="#2e2418" stroke-width="1"/>
    <!-- light base line and neck hatching -->
    <path d="M258 292Q296 310 338 296" stroke-width="1" opacity="0.85"/>
    <g stroke-width="0.9" opacity="0.75">
      <path d="M320 220q6 14 5 30M330 216q5 15 4 32M310 226q6 12 5 26"/>
      <path d="M246 224q5 10 5 22M252 244q3 10 2 22"/>
    </g>
  </g>
  <text x="260" y="415" text-anchor="middle" font-family="Georgia, 'Times New Roman', serif" font-size="12" letter-spacing="4" fill="#96612f">CANIS FAMILIARIS</text>
</svg>
