<svg xmlns="http://www.w3.org/2000/svg" width="520" height="420" viewBox="0 0 520 420">
  <title>Engraved botanical wreath with dog in profile</title>
  <desc>Copperplate-style line drawing: a dog's head in profile within an open wreath of leaves, oat spikelets and chamomile.</desc>
  <defs>
    <path id="lf" d="M0 0Q9 -13 30 -13Q14 -1 0 0Z"/>
    <path id="pt" d="M0 -7Q3 -15 0 -21Q-3 -15 0 -7"/>
    <path id="sp" d="M0 0Q4 7 0 15Q-4 7 0 0Z"/>
    <g id="cham">
      <use href="#pt"/><use href="#pt" transform="rotate(36)"/><use href="#pt" transform="rotate(72)"/>
      <use href="#pt" transform="rotate(108)"/><use href="#pt" transform="rotate(144)"/><use href="#pt" transform="rotate(180)"/>
      <use href="#pt" transform="rotate(216)"/><use href="#pt" transform="rotate(252)"/><use href="#pt" transform="rotate(288)"/>
      <use href="#pt" transform="rotate(324)"/>
      <circle r="5.5"/>
      <g fill="#2e2418" stroke="none">
        <circle r="1"/><circle cx="2.6" cy="1.4" r="0.8"/><circle cx="-2.4" cy="1.6" r="0.8"/><circle cx="0.4" cy="-2.6" r="0.8"/>
      </g>
    </g>
    <g id="branch">
      <!-- stem: arc from bottom binding towards upper left -->
      <path d="M254 380A165 165 0 0 1 143 98" stroke-width="2"/>
      <use href="#lf" transform="translate(217 374) rotate(140)"/>
      <use href="#lf" transform="translate(173 355) rotate(157)"/>
      <use href="#lf" transform="translate(134 321) rotate(285) scale(0.7)"/>
      <use href="#lf" transform="translate(134 321) rotate(165)"/>
      <use href="#lf" transform="translate(107 277) rotate(193)"/>
      <use href="#lf" transform="translate(95 227) rotate(321) scale(0.7)"/>
      <use href="#lf" transform="translate(95 227) rotate(201)"/>
      <use href="#lf" transform="translate(100 175) rotate(229)"/>
      <use href="#lf" transform="translate(120 128) rotate(247)"/>
      <!-- oat spray at the branch tip -->
      <path d="M143 98Q152 74 170 58" stroke-width="1.4"/>
      <path d="M158 78Q150 68 148 56M164 68Q162 55 168 45M170 58Q178 50 190 47" stroke-width="1"/>
      <use href="#sp" transform="translate(148 56) rotate(14)"/>
      <use href="#sp" transform="translate(168 45) rotate(-6)"/>
      <use href="#sp" transform="translate(190 47) rotate(-52)"/>
    </g>
  </defs>
  <g stroke="#2e2418" fill="none" stroke-linecap="round" stroke-linejoin="round" stroke-width="1.5">
    <use href="#branch"/>
    <use href="#branch" transform="translate(520 0) scale(-1 1)"/>
    <!-- chamomile at the binding of the wreath -->
    <use href="#cham" transform="translate(235 378) rotate(-8) scale(0.95)"/>
    <use href="#cham" transform="translate(286 382) rotate(12) scale(0.95)"/>
    <path d="M260 392q0-6 4-9" stroke-width="1.2"/>
    <circle cx="261" cy="394" r="3.5"/>
    <!-- dog: head and chest in profile, facing left -->
    <g stroke-width="2">
      <path d="M298 122C281 121 266 129 256 143C252 149 250 153 244 156C231 162 216 167 206 171"/>
      <path d="M209 190C216 192 224 194 230 196C234 198 237 200 239 203C247 211 252 221 256 234C261 252 259 274 253 296"/>
      <path d="M298 122C316 126 328 136 334 152C341 170 343 200 342 238C341 262 339 280 336 298"/>
      <path d="M288 130C304 134 314 148 316 168C317 184 312 197 302 202C293 206 285 199 283 184C281 166 282 144 288 130Z"/>
    </g>
    <!-- nose pad -->
    <path d="M206 171C201 173 199 176 199 180C199 184 202 187 206 188C209 188 211 186 211 183C211 178 209 173 206 171Z" fill="#2e2418" stroke-width="1"/>
    <path d="M212 192Q222 197 232 198" stroke-width="1.2" opacity="0.85"/>
    <!-- eye and brow -->
    <path d="M244 158q6-4 11-1q-5 5-11 1Z" fill="#2e2418" stroke-width="1"/>
    <path d="M243 150q6-3 11-2" stroke-width="1"/>
    <!-- ear fold -->
    <path d="M291 140C298 150 302 164 302 180" stroke-width="1" opacity="0.7"/>
    <!-- whisker stipple -->
    <g fill="#2e2418" stroke="none" opacity="0.8">
      <circle cx="216" cy="180" r="0.8"/><circle cx="222" cy="184" r="0.8"/>
      <circle cx="228" cy="180" r="0.8"/><circle cx="220" cy="176" r="0.8"/>
    </g>
    <!-- light base line and hatching -->
    <path d="M253 296Q294 314 336 298" stroke-width="1" opacity="0.85"/>
    <g stroke-width="0.9" opacity="0.7">
      <path d="M318 210q8 18 7 38M328 206q7 20 6 42M308 218q7 14 6 30"/>
      <path d="M248 240q6 12 6 26M254 262q3 12 2 24"/>
    </g>
  </g>
  <text x="260" y="416" text-anchor="middle" font-family="Georgia, 'Times New Roman', serif" font-size="12" letter-spacing="4" fill="#96612f">CANIS FAMILIARIS</text>
</svg>
